<?xml version="1.0" standalone="no"?><!DOCTYPE svg PUBLIC "-//W3C//DTD SVG 1.1//EN" "http://www.w3.org/Graphics/SVG/1.1/DTD/svg11.dtd"><svg t="1546579567735" class="icon" style="" viewBox="0 0 1024 1024" version="1.1" xmlns="http://www.w3.org/2000/svg" p-id="4103" xmlns:xlink="http://www.w3.org/1999/xlink" width="200" height="200"><defs><style type="text/css"></style></defs><path d="M881.1 630L577.7 933.2c-17.9 17.9-40 26.8-65.7 26.8-27.7 0.1-47.8-8.9-65.7-26.8L142.9 630c-27.9-27.9-27.9-73.2 0-101.1 27.9-27.9 73.2-27.9 101.1 0l197.3 197.2V137c0-40.3 32.7-73 73-73s73 32.7 73 73v584.4L780 528.9c27.9-27.9 73.2-27.9 101.1 0 28 28 28 73.2 0 101.1z" fill="#1296db" p-id="4104"></path></svg>